<!--?xml version="1.0" standalone="no"?-->
              <svg id="sw-js-blob-svg" viewBox="0 0 100 100" xmlns="http://www.w3.org/2000/svg" version="1.1">
                    <defs> 
                        <linearGradient id="sw-gradient" x1="0" x2="1" y1="1" y2="0">
                            <stop id="stop1" stop-color="rgba(0, 189.488, 255, 0.54)" offset="0%"></stop>
                            <stop id="stop2" stop-color="rgba(29, 78, 216, 1)" offset="100%"></stop>
                        </linearGradient>
                    </defs>
                <path fill="url(#sw-gradient)" d="M25.4,-35C31.4,-30.6,33.7,-21.1,34.8,-12.5C36,-4,35.8,3.8,34.3,12C32.8,20.1,29.9,28.6,23.9,33.7C18,38.8,9,40.5,0,40.5C-8.9,40.4,-17.8,38.6,-25.1,33.9C-32.4,29.2,-38,21.7,-39.1,13.8C-40.2,5.9,-36.7,-2.5,-33.2,-10.1C-29.8,-17.8,-26.4,-24.7,-20.9,-29.3C-15.4,-33.9,-7.7,-36.1,1,-37.4C9.7,-38.8,19.4,-39.4,25.4,-35Z" width="100%" height="100%" transform="translate(50 50)" stroke-width="0" style="transition: all 0.3s ease 0s;" stroke="url(#sw-gradient)"></path>
              </svg>